STARTFONT 2.1
COMMENT Designed by Rob Myers and Ivan Bach
COMMENT Copyright (c) 1991-1993 Silicon Graphics, Inc.
COMMENT Generated by Fontographer 3.3
FONT -SGI-Screen-Bold-R-Normal--15-150-72-72-M-90-ISO8859-1
SIZE 15 72 72
FONTBOUNDINGBOX 9 15 0 -4
STARTPROPERTIES 22
_DEC_DEVICE_FONTNAMES "FM=Screen-Bold"
FONTNAME_REGISTRY ""
FAMILY_NAME "Screen"
FOUNDRY "SGI"
WEIGHT_NAME "Bold"
SLANT "R"
SETWIDTH_NAME "Normal"
ADD_STYLE_NAME ""
PIXEL_SIZE 15
POINT_SIZE 150
RESOLUTION_X 72
RESOLUTION_Y 72
SPACING "M"
AVERAGE_WIDTH 90
CHARSET_REGISTRY "ISO8859"
CHARSET_ENCODING "1"
CHARSET_COLLECTIONS "ASCII ISO8859-1"
FULL_NAME "Screen Bold"
FONT_ASCENT 11
FONT_DESCENT 4
CAP_HEIGHT 10
X_HEIGHT 7
ENDPROPERTIES
CHARS 190
STARTCHAR space
ENCODING 32
SWIDTH 600 0
DWIDTH 9 0
BBX 1 1 0 0
BITMAP
00
ENDCHAR
STARTCHAR exclam
ENCODING 33
SWIDTH 600 0
DWIDTH 9 0
BBX 2 10 3 0
BITMAP
c0
c0
c0
c0
c0
c0
c0
00
c0
c0
ENDCHAR
STARTCHAR quotedbl
ENCODING 34
SWIDTH 600 0
DWIDTH 9 0
BBX 5 4 2 6
BITMAP
d8
d8
d8
d8
ENDCHAR
STARTCHAR numbersign
ENCODING 35
SWIDTH 600 0
DWIDTH 9 0
BBX 9 10 0 0
BITMAP
1b00
1b00
1b00
7f80
3600
3600
ff00
6c00
6c00
6c00
ENDCHAR
STARTCHAR dollar
ENCODING 36
SWIDTH 600 0
DWIDTH 9 0
BBX 7 12 1 -1
BITMAP
10
7c
d6
d6
d6
70
1c
d6
d6
d6
7c
10
ENDCHAR
STARTCHAR percent
ENCODING 37
SWIDTH 600 0
DWIDTH 9 0
BBX 8 10 0 0
BITMAP
73
93
96
ec
18
18
37
69
c9
ce
ENDCHAR
STARTCHAR ampersand
ENCODING 38
SWIDTH 600 0
DWIDTH 9 0
BBX 8 10 0 0
BITMAP
38
6c
6c
38
30
7b
de
cc
dc
77
ENDCHAR
STARTCHAR quoteright
ENCODING 39
SWIDTH 600 0
DWIDTH 9 0
BBX 4 4 2 6
BITMAP
30
30
60
c0
ENDCHAR
STARTCHAR parenleft
ENCODING 40
SWIDTH 600 0
DWIDTH 9 0
BBX 5 13 2 -2
BITMAP
18
30
60
60
c0
c0
c0
c0
c0
60
60
30
18
ENDCHAR
STARTCHAR parenright
ENCODING 41
SWIDTH 600 0
DWIDTH 9 0
BBX 5 13 2 -2
BITMAP
c0
60
30
30
18
18
18
18
18
30
30
60
c0
ENDCHAR
STARTCHAR asterisk
ENCODING 42
SWIDTH 600 0
DWIDTH 9 0
BBX 6 7 1 1
BITMAP
30
b4
fc
78
fc
b4
30
ENDCHAR
STARTCHAR plus
ENCODING 43
SWIDTH 600 0
DWIDTH 9 0
BBX 6 6 1 1
BITMAP
30
30
fc
fc
30
30
ENDCHAR
STARTCHAR comma
ENCODING 44
SWIDTH 600 0
DWIDTH 9 0
BBX 3 4 2 -2
BITMAP
60
60
20
c0
ENDCHAR
STARTCHAR minus
ENCODING 45
SWIDTH 600 0
DWIDTH 9 0
BBX 6 2 1 3
BITMAP
fc
fc
ENDCHAR
STARTCHAR period
ENCODING 46
SWIDTH 600 0
DWIDTH 9 0
BBX 2 2 3 0
BITMAP
c0
c0
ENDCHAR
STARTCHAR slash
ENCODING 47
SWIDTH 600 0
DWIDTH 9 0
BBX 7 12 1 -1
BITMAP
06
06
0c
0c
18
18
30
30
60
60
c0
c0
ENDCHAR
STARTCHAR zero
ENCODING 48
SWIDTH 600 0
DWIDTH 9 0
BBX 7 10 1 0
BITMAP
7c
c6
c6
ce
de
f6
e6
c6
c6
7c
ENDCHAR
STARTCHAR one
ENCODING 49
SWIDTH 600 0
DWIDTH 9 0
BBX 4 10 3 0
BITMAP
60
e0
60
60
60
60
60
60
60
f0
ENDCHAR
STARTCHAR two
ENCODING 50
SWIDTH 600 0
DWIDTH 9 0
BBX 7 10 1 0
BITMAP
7c
c6
c6
06
0c
18
30
60
c0
fe
ENDCHAR
STARTCHAR three
ENCODING 51
SWIDTH 600 0
DWIDTH 9 0
BBX 7 10 1 0
BITMAP
7c
c6
c6
06
3c
0e
06
c6
c6
7c
ENDCHAR
STARTCHAR four
ENCODING 52
SWIDTH 600 0
DWIDTH 9 0
BBX 7 10 1 0
BITMAP
0c
1c
3c
6c
cc
cc
fe
0c
0c
0c
ENDCHAR
STARTCHAR five
ENCODING 53
SWIDTH 600 0
DWIDTH 9 0
BBX 7 10 1 0
BITMAP
fe
c0
c0
c0
fc
06
06
c6
c6
7c
ENDCHAR
STARTCHAR six
ENCODING 54
SWIDTH 600 0
DWIDTH 9 0
BBX 7 10 1 0
BITMAP
7c
c6
c0
c0
fc
c6
c6
c6
c6
7c
ENDCHAR
STARTCHAR seven
ENCODING 55
SWIDTH 600 0
DWIDTH 9 0
BBX 7 10 1 0
BITMAP
fe
06
06
0c
0c
18
18
30
30
30
ENDCHAR
STARTCHAR eight
ENCODING 56
SWIDTH 600 0
DWIDTH 9 0
BBX 7 10 1 0
BITMAP
7c
c6
c6
c6
7c
c6
c6
c6
c6
7c
ENDCHAR
STARTCHAR nine
ENCODING 57
SWIDTH 600 0
DWIDTH 9 0
BBX 7 10 1 0
BITMAP
7c
c6
c6
c6
c6
7e
06
06
c6
7c
ENDCHAR
STARTCHAR colon
ENCODING 58
SWIDTH 600 0
DWIDTH 9 0
BBX 2 7 3 0
BITMAP
c0
c0
00
00
00
c0
c0
ENDCHAR
STARTCHAR semicolon
ENCODING 59
SWIDTH 600 0
DWIDTH 9 0
BBX 3 9 2 -2
BITMAP
60
60
00
00
00
60
60
20
c0
ENDCHAR
STARTCHAR less
ENCODING 60
SWIDTH 600 0
DWIDTH 9 0
BBX 6 11 1 -1
BITMAP
04
0c
18
30
60
c0
60
30
18
0c
04
ENDCHAR
STARTCHAR equal
ENCODING 61
SWIDTH 600 0
DWIDTH 9 0
BBX 7 6 1 1
BITMAP
fe
fe
00
00
fe
fe
ENDCHAR
STARTCHAR greater
ENCODING 62
SWIDTH 600 0
DWIDTH 9 0
BBX 6 11 2 -1
BITMAP
80
c0
60
30
18
0c
18
30
60
c0
80
ENDCHAR
STARTCHAR question
ENCODING 63
SWIDTH 600 0
DWIDTH 9 0
BBX 7 10 1 0
BITMAP
7c
c6
c6
06
0c
18
18
00
18
18
ENDCHAR
STARTCHAR at
ENCODING 64
SWIDTH 600 0
DWIDTH 9 0
BBX 7 10 1 0
BITMAP
38
6c
c6
de
d6
d6
dc
c0
66
3c
ENDCHAR
STARTCHAR A
ENCODING 65
SWIDTH 600 0
DWIDTH 9 0
BBX 7 10 1 0
BITMAP
10
38
38
6c
6c
6c
c6
fe
c6
c6
ENDCHAR
STARTCHAR B
ENCODING 66
SWIDTH 600 0
DWIDTH 9 0
BBX 7 10 1 0
BITMAP
f8
cc
cc
cc
f8
cc
c6
c6
c6
fc
ENDCHAR
STARTCHAR C
ENCODING 67
SWIDTH 600 0
DWIDTH 9 0
BBX 7 10 1 0
BITMAP
7c
c6
c6
c0
c0
c0
c0
c6
c6
7c
ENDCHAR
STARTCHAR D
ENCODING 68
SWIDTH 600 0
DWIDTH 9 0
BBX 7 10 1 0
BITMAP
f8
cc
c6
c6
c6
c6
c6
c6
cc
f8
ENDCHAR
STARTCHAR E
ENCODING 69
SWIDTH 600 0
DWIDTH 9 0
BBX 7 10 1 0
BITMAP
fe
c0
c0
c0
fc
c0
c0
c0
c0
fe
ENDCHAR
STARTCHAR F
ENCODING 70
SWIDTH 600 0
DWIDTH 9 0
BBX 7 10 1 0
BITMAP
fe
c0
c0
c0
fc
c0
c0
c0
c0
c0
ENDCHAR
STARTCHAR G
ENCODING 71
SWIDTH 600 0
DWIDTH 9 0
BBX 7 10 1 0
BITMAP
7c
c6
c6
c0
c0
ce
c6
c6
ce
7a
ENDCHAR
STARTCHAR H
ENCODING 72
SWIDTH 600 0
DWIDTH 9 0
BBX 7 10 1 0
BITMAP
c6
c6
c6
c6
fe
c6
c6
c6
c6
c6
ENDCHAR
STARTCHAR I
ENCODING 73
SWIDTH 600 0
DWIDTH 9 0
BBX 4 10 2 0
BITMAP
f0
60
60
60
60
60
60
60
60
f0
ENDCHAR
STARTCHAR J
ENCODING 74
SWIDTH 600 0
DWIDTH 9 0
BBX 6 10 1 0
BITMAP
0c
0c
0c
0c
0c
0c
0c
cc
cc
78
ENDCHAR
STARTCHAR K
ENCODING 75
SWIDTH 600 0
DWIDTH 9 0
BBX 7 10 1 0
BITMAP
c6
cc
d8
f0
f8
d8
cc
cc
c6
c6
ENDCHAR
STARTCHAR L
ENCODING 76
SWIDTH 600 0
DWIDTH 9 0
BBX 7 10 1 0
BITMAP
c0
c0
c0
c0
c0
c0
c0
c0
c0
fe
ENDCHAR
STARTCHAR M
ENCODING 77
SWIDTH 600 0
DWIDTH 9 0
BBX 8 10 0 0
BITMAP
c3
c3
e7
e7
ff
db
db
c3
c3
c3
ENDCHAR
STARTCHAR N
ENCODING 78
SWIDTH 600 0
DWIDTH 9 0
BBX 7 10 1 0
BITMAP
c6
c6
e6
e6
f6
d6
de
ce
ce
c6
ENDCHAR
STARTCHAR O
ENCODING 79
SWIDTH 600 0
DWIDTH 9 0
BBX 7 10 1 0
BITMAP
7c
c6
c6
c6
c6
c6
c6
c6
c6
7c
ENDCHAR
STARTCHAR P
ENCODING 80
SWIDTH 600 0
DWIDTH 9 0
BBX 7 10 1 0
BITMAP
fc
c6
c6
c6
c6
fc
c0
c0
c0
c0
ENDCHAR
STARTCHAR Q
ENCODING 81
SWIDTH 600 0
DWIDTH 9 0
BBX 7 13 1 -3
BITMAP
7c
c6
c6
c6
c6
c6
c6
c6
d6
7c
08
0c
06
ENDCHAR
STARTCHAR R
ENCODING 82
SWIDTH 600 0
DWIDTH 9 0
BBX 7 10 1 0
BITMAP
fc
c6
c6
c6
fc
d8
cc
cc
c6
c6
ENDCHAR
STARTCHAR S
ENCODING 83
SWIDTH 600 0
DWIDTH 9 0
BBX 7 10 1 0
BITMAP
7c
c6
c6
e0
78
1c
0e
c6
c6
7c
ENDCHAR
STARTCHAR T
ENCODING 84
SWIDTH 600 0
DWIDTH 9 0
BBX 8 10 0 0
BITMAP
ff
18
18
18
18
18
18
18
18
18
ENDCHAR
STARTCHAR U
ENCODING 85
SWIDTH 600 0
DWIDTH 9 0
BBX 7 10 1 0
BITMAP
c6
c6
c6
c6
c6
c6
c6
c6
c6
7c
ENDCHAR
STARTCHAR V
ENCODING 86
SWIDTH 600 0
DWIDTH 9 0
BBX 7 10 1 0
BITMAP
c6
c6
c6
6c
6c
6c
38
38
10
10
ENDCHAR
STARTCHAR W
ENCODING 87
SWIDTH 600 0
DWIDTH 9 0
BBX 9 10 0 0
BITMAP
c180
c980
c980
dd80
dd80
7f00
7700
3600
2200
2200
ENDCHAR
STARTCHAR X
ENCODING 88
SWIDTH 600 0
DWIDTH 9 0
BBX 7 10 1 0
BITMAP
c6
c6
6c
6c
38
38
6c
6c
c6
c6
ENDCHAR
STARTCHAR Y
ENCODING 89
SWIDTH 600 0
DWIDTH 9 0
BBX 8 10 0 0
BITMAP
c3
c3
66
66
3c
18
18
18
18
18
ENDCHAR
STARTCHAR Z
ENCODING 90
SWIDTH 600 0
DWIDTH 9 0
BBX 7 10 1 0
BITMAP
fe
06
06
0c
18
30
60
c0
c0
fe
ENDCHAR
STARTCHAR bracketleft
ENCODING 91
SWIDTH 600 0
DWIDTH 9 0
BBX 5 13 2 -2
BITMAP
f8
c0
c0
c0
c0
c0
c0
c0
c0
c0
c0
c0
f8
ENDCHAR
STARTCHAR backslash
ENCODING 92
SWIDTH 600 0
DWIDTH 9 0
BBX 7 12 1 -1
BITMAP
c0
c0
60
60
30
30
18
18
0c
0c
06
06
ENDCHAR
STARTCHAR bracketright
ENCODING 93
SWIDTH 600 0
DWIDTH 9 0
BBX 5 13 2 -2
BITMAP
f8
18
18
18
18
18
18
18
18
18
18
18
f8
ENDCHAR
STARTCHAR asciicircum
ENCODING 94
SWIDTH 600 0
DWIDTH 9 0
BBX 7 4 1 6
BITMAP
10
38
6c
c6
ENDCHAR
STARTCHAR underscore
ENCODING 95
SWIDTH 600 0
DWIDTH 9 0
BBX 9 2 0 -3
BITMAP
ff80
ff80
ENDCHAR
STARTCHAR quoteleft
ENCODING 96
SWIDTH 600 0
DWIDTH 9 0
BBX 4 4 2 6
BITMAP
c0
c0
60
30
ENDCHAR
STARTCHAR a
ENCODING 97
SWIDTH 600 0
DWIDTH 9 0
BBX 7 7 1 0
BITMAP
78
cc
0c
7c
cc
cc
7e
ENDCHAR
STARTCHAR b
ENCODING 98
SWIDTH 600 0
DWIDTH 9 0
BBX 7 10 1 0
BITMAP
c0
c0
c0
dc
e6
c6
c6
c6
e6
dc
ENDCHAR
STARTCHAR c
ENCODING 99
SWIDTH 600 0
DWIDTH 9 0
BBX 7 7 1 0
BITMAP
7c
c6
c0
c0
c0
c6
7c
ENDCHAR
STARTCHAR d
ENCODING 100
SWIDTH 600 0
DWIDTH 9 0
BBX 7 10 1 0
BITMAP
06
06
06
76
ce
c6
c6
c6
ce
76
ENDCHAR
STARTCHAR e
ENCODING 101
SWIDTH 600 0
DWIDTH 9 0
BBX 7 7 1 0
BITMAP
7c
c6
c6
fe
c0
c6
7c
ENDCHAR
STARTCHAR f
ENCODING 102
SWIDTH 600 0
DWIDTH 9 0
BBX 7 10 1 0
BITMAP
1e
30
30
fc
30
30
30
30
30
30
ENDCHAR
STARTCHAR g
ENCODING 103
SWIDTH 600 0
DWIDTH 9 0
BBX 7 10 1 -3
BITMAP
76
ce
c6
c6
c6
ce
76
06
c6
7c
ENDCHAR
STARTCHAR h
ENCODING 104
SWIDTH 600 0
DWIDTH 9 0
BBX 7 10 1 0
BITMAP
c0
c0
c0
dc
e6
c6
c6
c6
c6
c6
ENDCHAR
STARTCHAR i
ENCODING 105
SWIDTH 600 0
DWIDTH 9 0
BBX 4 10 2 0
BITMAP
30
30
00
f0
30
30
30
30
30
30
ENDCHAR
STARTCHAR j
ENCODING 106
SWIDTH 600 0
DWIDTH 9 0
BBX 6 13 1 -3
BITMAP
0c
0c
00
3c
0c
0c
0c
0c
0c
0c
0c
cc
78
ENDCHAR
STARTCHAR k
ENCODING 107
SWIDTH 600 0
DWIDTH 9 0
BBX 7 10 1 0
BITMAP
c0
c0
c0
c6
cc
f8
f0
d8
cc
c6
ENDCHAR
STARTCHAR l
ENCODING 108
SWIDTH 600 0
DWIDTH 9 0
BBX 4 10 2 0
BITMAP
f0
30
30
30
30
30
30
30
30
30
ENDCHAR
STARTCHAR m
ENCODING 109
SWIDTH 600 0
DWIDTH 9 0
BBX 8 7 0 0
BITMAP
b6
ff
db
db
db
db
db
ENDCHAR
STARTCHAR n
ENCODING 110
SWIDTH 600 0
DWIDTH 9 0
BBX 7 7 1 0
BITMAP
dc
e6
c6
c6
c6
c6
c6
ENDCHAR
STARTCHAR o
ENCODING 111
SWIDTH 600 0
DWIDTH 9 0
BBX 7 7 1 0
BITMAP
7c
c6
c6
c6
c6
c6
7c
ENDCHAR
STARTCHAR p
ENCODING 112
SWIDTH 600 0
DWIDTH 9 0
BBX 7 10 1 -3
BITMAP
dc
e6
c6
c6
c6
e6
dc
c0
c0
c0
ENDCHAR
STARTCHAR q
ENCODING 113
SWIDTH 600 0
DWIDTH 9 0
BBX 7 10 1 -3
BITMAP
76
ce
c6
c6
c6
ce
76
06
06
06
ENDCHAR
STARTCHAR r
ENCODING 114
SWIDTH 600 0
DWIDTH 9 0
BBX 7 7 1 0
BITMAP
dc
f6
c0
c0
c0
c0
c0
ENDCHAR
STARTCHAR s
ENCODING 115
SWIDTH 600 0
DWIDTH 9 0
BBX 7 7 1 0
BITMAP
7c
c6
c0
7c
06
c6
7c
ENDCHAR
STARTCHAR t
ENCODING 116
SWIDTH 600 0
DWIDTH 9 0
BBX 6 9 1 0
BITMAP
30
30
fc
30
30
30
30
30
1c
ENDCHAR
STARTCHAR u
ENCODING 117
SWIDTH 600 0
DWIDTH 9 0
BBX 7 7 1 0
BITMAP
c6
c6
c6
c6
c6
ce
76
ENDCHAR
STARTCHAR v
ENCODING 118
SWIDTH 600 0
DWIDTH 9 0
BBX 7 7 1 0
BITMAP
c6
c6
6c
6c
38
38
10
ENDCHAR
STARTCHAR w
ENCODING 119
SWIDTH 600 0
DWIDTH 9 0
BBX 8 7 0 0
BITMAP
c3
c3
db
db
db
ff
66
ENDCHAR
STARTCHAR x
ENCODING 120
SWIDTH 600 0
DWIDTH 9 0
BBX 7 7 1 0
BITMAP
c6
c6
6c
38
6c
c6
c6
ENDCHAR
STARTCHAR y
ENCODING 121
SWIDTH 600 0
DWIDTH 9 0
BBX 7 10 1 -3
BITMAP
c6
c6
c6
c6
c6
ce
76
06
c6
7c
ENDCHAR
STARTCHAR z
ENCODING 122
SWIDTH 600 0
DWIDTH 9 0
BBX 7 7 1 0
BITMAP
fe
0c
18
30
60
c0
fe
ENDCHAR
STARTCHAR braceleft
ENCODING 123
SWIDTH 600 0
DWIDTH 9 0
BBX 7 14 1 -3
BITMAP
1e
30
30
30
30
30
e0
30
30
30
30
30
30
1e
ENDCHAR
STARTCHAR bar
ENCODING 124
SWIDTH 600 0
DWIDTH 9 0
BBX 2 14 3 -3
BITMAP
c0
c0
c0
c0
c0
c0
c0
c0
c0
c0
c0
c0
c0
c0
ENDCHAR
STARTCHAR braceright
ENCODING 125
SWIDTH 600 0
DWIDTH 9 0
BBX 7 14 1 -3
BITMAP
f0
18
18
18
18
18
0e
18
18
18
18
18
18
f0
ENDCHAR
STARTCHAR asciitilde
ENCODING 126
SWIDTH 600 0
DWIDTH 9 0
BBX 6 3 1 3
BITMAP
64
fc
98
ENDCHAR
STARTCHAR exclamdown
ENCODING 161
SWIDTH 600 0
DWIDTH 9 0
BBX 2 10 3 -3
BITMAP
c0
c0
00
c0
c0
c0
c0
c0
c0
c0
ENDCHAR
STARTCHAR cent
ENCODING 162
SWIDTH 600 0
DWIDTH 9 0
BBX 7 10 1 0
BITMAP
18
18
7c
c6
c0
c0
c6
7c
18
18
ENDCHAR
STARTCHAR sterling
ENCODING 163
SWIDTH 600 0
DWIDTH 9 0
BBX 7 11 1 0
BITMAP
3c
66
62
60
30
7c
30
30
62
fe
bc
ENDCHAR
STARTCHAR currency
ENCODING 164
SWIDTH 600 0
DWIDTH 9 0
BBX 6 6 1 1
BITMAP
cc
fc
48
48
fc
cc
ENDCHAR
STARTCHAR yen
ENCODING 165
SWIDTH 600 0
DWIDTH 9 0
BBX 8 11 0 0
BITMAP
81
c3
66
24
3c
18
7e
18
7e
18
3c
ENDCHAR
STARTCHAR brokenbar
ENCODING 166
SWIDTH 600 0
DWIDTH 9 0
BBX 2 14 3 -3
BITMAP
c0
c0
c0
c0
c0
c0
00
00
c0
c0
c0
c0
c0
c0
ENDCHAR
STARTCHAR section
ENCODING 167
SWIDTH 600 0
DWIDTH 9 0
BBX 7 13 1 -2
BITMAP
7c
c6
c0
e0
78
ce
c6
66
3c
0e
06
c6
7c
ENDCHAR
STARTCHAR dieresis
ENCODING 168
SWIDTH 600 0
DWIDTH 9 0
BBX 5 2 2 8
BITMAP
d8
d8
ENDCHAR
STARTCHAR copyright
ENCODING 169
SWIDTH 600 0
DWIDTH 9 0
BBX 8 9 0 0
BITMAP
3c
66
db
b5
b1
b5
db
66
3c
ENDCHAR
STARTCHAR ordfeminine
ENCODING 170
SWIDTH 600 0
DWIDTH 9 0
BBX 5 8 2 2
BITMAP
70
98
78
d8
68
00
f8
f8
ENDCHAR
STARTCHAR guillemotleft
ENCODING 171
SWIDTH 600 0
DWIDTH 9 0
BBX 7 8 1 0
BITMAP
12
36
6c
d8
d8
6c
36
12
ENDCHAR
STARTCHAR logicalnot
ENCODING 172
SWIDTH 600 0
DWIDTH 9 0
BBX 7 4 1 2
BITMAP
fe
fe
06
06
ENDCHAR
STARTCHAR hyphen
ENCODING 173
SWIDTH 600 0
DWIDTH 9 0
BBX 6 2 1 4
BITMAP
fc
fc
ENDCHAR
STARTCHAR registered
ENCODING 174
SWIDTH 600 0
DWIDTH 9 0
BBX 8 9 0 0
BITMAP
3c
66
fb
ad
b9
a9
ef
66
3c
ENDCHAR
STARTCHAR macron
ENCODING 175
SWIDTH 600 0
DWIDTH 9 0
BBX 5 2 2 8
BITMAP
f8
f8
ENDCHAR
STARTCHAR degree
ENCODING 176
SWIDTH 600 0
DWIDTH 9 0
BBX 5 3 2 4
BITMAP
70
d8
70
ENDCHAR
STARTCHAR plusminus
ENCODING 177
SWIDTH 600 0
DWIDTH 9 0
BBX 6 9 1 0
BITMAP
30
30
fc
fc
30
30
00
fc
fc
ENDCHAR
STARTCHAR twosuperior
ENCODING 178
SWIDTH 600 0
DWIDTH 9 0
BBX 4 6 2 5
BITMAP
60
f0
30
60
c0
f0
ENDCHAR
STARTCHAR threesuperior
ENCODING 179
SWIDTH 600 0
DWIDTH 9 0
BBX 4 6 2 5
BITMAP
60
f0
30
60
30
f0
ENDCHAR
STARTCHAR acute
ENCODING 180
SWIDTH 600 0
DWIDTH 9 0
BBX 4 3 2 8
BITMAP
30
60
c0
ENDCHAR
STARTCHAR mu
ENCODING 181
SWIDTH 600 0
DWIDTH 9 0
BBX 7 10 1 -3
BITMAP
c6
c6
c6
c6
c6
ce
f6
c0
c0
c0
ENDCHAR
STARTCHAR paragraph
ENCODING 182
SWIDTH 600 0
DWIDTH 9 0
BBX 8 13 0 -3
BITMAP
7f
f6
b6
b6
b6
f6
76
36
36
36
36
36
36
ENDCHAR
STARTCHAR periodcentered
ENCODING 183
SWIDTH 600 0
DWIDTH 9 0
BBX 2 2 3 3
BITMAP
c0
c0
ENDCHAR
STARTCHAR cedilla
ENCODING 184
SWIDTH 600 0
DWIDTH 9 0
BBX 3 3 3 -3
BITMAP
60
20
e0
ENDCHAR
STARTCHAR onesuperior
ENCODING 185
SWIDTH 600 0
DWIDTH 9 0
BBX 4 6 2 5
BITMAP
60
e0
60
60
60
f0
ENDCHAR
STARTCHAR ordmasculine
ENCODING 186
SWIDTH 600 0
DWIDTH 9 0
BBX 5 8 2 2
BITMAP
70
d8
d8
d8
70
00
f8
f8
ENDCHAR
STARTCHAR guillemotright
ENCODING 187
SWIDTH 600 0
DWIDTH 9 0
BBX 7 8 1 0
BITMAP
90
d8
6c
36
36
6c
d8
90
ENDCHAR
STARTCHAR onequarter
ENCODING 188
SWIDTH 600 0
DWIDTH 9 0
BBX 8 11 1 0
BITMAP
e0
60
66
6c
f8
36
6e
de
36
3f
06
ENDCHAR
STARTCHAR onehalf
ENCODING 189
SWIDTH 600 0
DWIDTH 9 0
BBX 7 12 1 -1
BITMAP
e0
60
66
6c
f8
30
6c
de
06
0c
18
1e
ENDCHAR
STARTCHAR threequarters
ENCODING 190
SWIDTH 600 0
DWIDTH 9 0
BBX 8 11 1 0
BITMAP
f0
30
66
3c
f8
36
6e
de
36
3f
06
ENDCHAR
STARTCHAR questiondown
ENCODING 191
SWIDTH 600 0
DWIDTH 9 0
BBX 7 10 1 -3
BITMAP
30
30
00
30
30
60
c0
c6
c6
7c
ENDCHAR
STARTCHAR Agrave
ENCODING 192
SWIDTH 600 0
DWIDTH 9 0
BBX 7 11 1 0
BITMAP
60
30
00
10
38
6c
6c
c6
fe
c6
c6
ENDCHAR
STARTCHAR Aacute
ENCODING 193
SWIDTH 600 0
DWIDTH 9 0
BBX 7 11 1 0
BITMAP
0c
18
00
10
38
6c
6c
c6
fe
c6
c6
ENDCHAR
STARTCHAR Acircumflex
ENCODING 194
SWIDTH 600 0
DWIDTH 9 0
BBX 7 11 1 0
BITMAP
38
6c
00
10
38
6c
6c
c6
fe
c6
c6
ENDCHAR
STARTCHAR Atilde
ENCODING 195
SWIDTH 600 0
DWIDTH 9 0
BBX 7 11 1 0
BITMAP
74
5c
00
10
38
6c
6c
c6
fe
c6
c6
ENDCHAR
STARTCHAR Adieresis
ENCODING 196
SWIDTH 600 0
DWIDTH 9 0
BBX 7 11 1 0
BITMAP
6c
6c
00
10
38
6c
6c
c6
fe
c6
c6
ENDCHAR
STARTCHAR Aring
ENCODING 197
SWIDTH 600 0
DWIDTH 9 0
BBX 7 11 1 0
BITMAP
38
28
38
10
38
6c
6c
c6
fe
c6
c6
ENDCHAR
STARTCHAR AE
ENCODING 198
SWIDTH 600 0
DWIDTH 9 0
BBX 8 9 0 0
BITMAP
3f
78
58
d8
de
f8
d8
d8
df
ENDCHAR
STARTCHAR Ccedilla
ENCODING 199
SWIDTH 600 0
DWIDTH 9 0
BBX 7 12 1 -3
BITMAP
7c
c6
c6
c0
c0
c0
c6
c6
7c
18
08
38
ENDCHAR
STARTCHAR Egrave
ENCODING 200
SWIDTH 600 0
DWIDTH 9 0
BBX 7 11 1 0
BITMAP
30
18
00
fe
c0
c0
fc
c0
c0
c0
fe
ENDCHAR
STARTCHAR Eacute
ENCODING 201
SWIDTH 600 0
DWIDTH 9 0
BBX 7 11 1 0
BITMAP
18
30
00
fe
c0
c0
fc
c0
c0
c0
fe
ENDCHAR
STARTCHAR Ecircumflex
ENCODING 202
SWIDTH 600 0
DWIDTH 9 0
BBX 7 11 1 0
BITMAP
38
6c
00
fe
c0
c0
fc
c0
c0
c0
fe
ENDCHAR
STARTCHAR Edieresis
ENCODING 203
SWIDTH 600 0
DWIDTH 9 0
BBX 7 11 1 0
BITMAP
6c
6c
00
fe
c0
c0
fc
c0
c0
c0
fe
ENDCHAR
STARTCHAR Igrave
ENCODING 204
SWIDTH 600 0
DWIDTH 9 0
BBX 4 11 2 0
BITMAP
c0
60
00
f0
60
60
60
60
60
60
f0
ENDCHAR
STARTCHAR Iacute
ENCODING 205
SWIDTH 600 0
DWIDTH 9 0
BBX 4 11 2 0
BITMAP
30
60
00
f0
60
60
60
60
60
60
f0
ENDCHAR
STARTCHAR Icircumflex
ENCODING 206
SWIDTH 600 0
DWIDTH 9 0
BBX 5 11 2 0
BITMAP
70
d8
00
f0
60
60
60
60
60
60
f0
ENDCHAR
STARTCHAR Idieresis
ENCODING 207
SWIDTH 600 0
DWIDTH 9 0
BBX 5 11 2 0
BITMAP
d8
d8
00
f0
60
60
60
60
60
60
f0
ENDCHAR
STARTCHAR Eth
ENCODING 208
SWIDTH 600 0
DWIDTH 9 0
BBX 8 9 0 0
BITMAP
7c
66
63
63
f3
63
63
66
7c
ENDCHAR
STARTCHAR Ntilde
ENCODING 209
SWIDTH 600 0
DWIDTH 9 0
BBX 7 11 1 0
BITMAP
74
5c
00
c6
e6
f6
d6
de
ce
ce
c6
ENDCHAR
STARTCHAR Ograve
ENCODING 210
SWIDTH 600 0
DWIDTH 9 0
BBX 7 11 1 0
BITMAP
60
30
00
7c
c6
c6
c6
c6
c6
c6
7c
ENDCHAR
STARTCHAR Oacute
ENCODING 211
SWIDTH 600 0
DWIDTH 9 0
BBX 7 11 1 0
BITMAP
18
30
00
7c
c6
c6
c6
c6
c6
c6
7c
ENDCHAR
STARTCHAR Ocircumflex
ENCODING 212
SWIDTH 600 0
DWIDTH 9 0
BBX 7 11 1 0
BITMAP
38
6c
00
7c
c6
c6
c6
c6
c6
c6
7c
ENDCHAR
STARTCHAR Otilde
ENCODING 213
SWIDTH 600 0
DWIDTH 9 0
BBX 7 11 1 0
BITMAP
74
5c
00
7c
c6
c6
c6
c6
c6
c6
7c
ENDCHAR
STARTCHAR Odieresis
ENCODING 214
SWIDTH 600 0
DWIDTH 9 0
BBX 7 11 1 0
BITMAP
6c
6c
00
7c
c6
c6
c6
c6
c6
c6
7c
ENDCHAR
STARTCHAR multiply
ENCODING 215
SWIDTH 600 0
DWIDTH 9 0
BBX 6 7 1 0
BITMAP
84
cc
78
30
78
cc
84
ENDCHAR
STARTCHAR Oslash
ENCODING 216
SWIDTH 600 0
DWIDTH 9 0
BBX 9 8 0 0
BITMAP
3e80
6300
6300
6700
6b00
7300
6300
be00
ENDCHAR
STARTCHAR Ugrave
ENCODING 217
SWIDTH 600 0
DWIDTH 9 0
BBX 7 11 1 0
BITMAP
30
18
00
c6
c6
c6
c6
c6
c6
c6
7c
ENDCHAR
STARTCHAR Uacute
ENCODING 218
SWIDTH 600 0
DWIDTH 9 0
BBX 7 11 1 0
BITMAP
18
30
00
c6
c6
c6
c6
c6
c6
c6
7c
ENDCHAR
STARTCHAR Ucircumflex
ENCODING 219
SWIDTH 600 0
DWIDTH 9 0
BBX 7 11 1 0
BITMAP
38
6c
00
c6
c6
c6
c6
c6
c6
c6
7c
ENDCHAR
STARTCHAR Udieresis
ENCODING 220
SWIDTH 600 0
DWIDTH 9 0
BBX 7 11 1 0
BITMAP
6c
6c
00
c6
c6
c6
c6
c6
c6
c6
7c
ENDCHAR
STARTCHAR Yacute
ENCODING 221
SWIDTH 600 0
DWIDTH 9 0
BBX 8 11 0 0
BITMAP
0c
18
00
c3
66
66
3c
18
18
18
18
ENDCHAR
STARTCHAR Thorn
ENCODING 222
SWIDTH 600 0
DWIDTH 9 0
BBX 8 10 0 0
BITMAP
f0
60
7c
66
63
63
66
7c
60
f0
ENDCHAR
STARTCHAR germandbls
ENCODING 223
SWIDTH 600 0
DWIDTH 9 0
BBX 7 10 1 0
BITMAP
30
78
cc
cc
d8
cc
c6
c6
e6
dc
ENDCHAR
STARTCHAR agrave
ENCODING 224
SWIDTH 600 0
DWIDTH 9 0
BBX 7 10 1 0
BITMAP
30
18
00
78
cc
0c
7c
cc
cc
7e
ENDCHAR
STARTCHAR aacute
ENCODING 225
SWIDTH 600 0
DWIDTH 9 0
BBX 7 10 1 0
BITMAP
18
30
00
78
cc
0c
7c
cc
cc
7e
ENDCHAR
STARTCHAR acircumflex
ENCODING 226
SWIDTH 600 0
DWIDTH 9 0
BBX 7 10 1 0
BITMAP
38
6c
00
78
cc
0c
7c
cc
cc
7e
ENDCHAR
STARTCHAR atilde
ENCODING 227
SWIDTH 600 0
DWIDTH 9 0
BBX 7 10 1 0
BITMAP
74
5c
00
78
cc
0c
7c
cc
cc
7e
ENDCHAR
STARTCHAR adieresis
ENCODING 228
SWIDTH 600 0
DWIDTH 9 0
BBX 7 10 1 0
BITMAP
6c
6c
00
78
cc
0c
7c
cc
cc
7e
ENDCHAR
STARTCHAR aring
ENCODING 229
SWIDTH 600 0
DWIDTH 9 0
BBX 7 11 1 0
BITMAP
38
28
38
00
78
cc
0c
7c
cc
cc
7e
ENDCHAR
STARTCHAR ae
ENCODING 230
SWIDTH 600 0
DWIDTH 9 0
BBX 8 7 0 0
BITMAP
7e
db
1b
7f
d8
db
6e
ENDCHAR
STARTCHAR ccedilla
ENCODING 231
SWIDTH 600 0
DWIDTH 9 0
BBX 7 10 1 -3
BITMAP
7c
c6
c0
c0
c0
c6
7c
18
08
38
ENDCHAR
STARTCHAR egrave
ENCODING 232
SWIDTH 600 0
DWIDTH 9 0
BBX 7 10 1 0
BITMAP
30
18
00
7c
c6
c6
fe
c0
c6
7c
ENDCHAR
STARTCHAR eacute
ENCODING 233
SWIDTH 600 0
DWIDTH 9 0
BBX 7 10 1 0
BITMAP
18
30
00
7c
c6
c6
fe
c0
c6
7c
ENDCHAR
STARTCHAR ecircumflex
ENCODING 234
SWIDTH 600 0
DWIDTH 9 0
BBX 7 10 1 0
BITMAP
38
6c
00
7c
c6
c6
fe
c0
c6
7c
ENDCHAR
STARTCHAR edieresis
ENCODING 235
SWIDTH 600 0
DWIDTH 9 0
BBX 7 10 1 0
BITMAP
6c
6c
00
7c
c6
c6
fe
c0
c6
7c
ENDCHAR
STARTCHAR igrave
ENCODING 236
SWIDTH 600 0
DWIDTH 9 0
BBX 4 10 2 0
BITMAP
60
30
00
f0
30
30
30
30
30
30
ENDCHAR
STARTCHAR iacute
ENCODING 237
SWIDTH 600 0
DWIDTH 9 0
BBX 4 10 2 0
BITMAP
30
60
00
f0
30
30
30
30
30
30
ENDCHAR
STARTCHAR icircumflex
ENCODING 238
SWIDTH 600 0
DWIDTH 9 0
BBX 5 10 2 0
BITMAP
70
d8
00
f0
30
30
30
30
30
30
ENDCHAR
STARTCHAR idieresis
ENCODING 239
SWIDTH 600 0
DWIDTH 9 0
BBX 5 10 2 0
BITMAP
d8
d8
00
f0
30
30
30
30
30
30
ENDCHAR
STARTCHAR eth
ENCODING 240
SWIDTH 600 0
DWIDTH 9 0
BBX 7 11 1 0
BITMAP
d8
70
d8
0c
7e
c6
c6
c6
c6
c6
7c
ENDCHAR
STARTCHAR ntilde
ENCODING 241
SWIDTH 600 0
DWIDTH 9 0
BBX 7 10 1 0
BITMAP
74
5c
00
dc
e6
c6
c6
c6
c6
c6
ENDCHAR
STARTCHAR ograve
ENCODING 242
SWIDTH 600 0
DWIDTH 9 0
BBX 7 10 1 0
BITMAP
30
18
00
7c
c6
c6
c6
c6
c6
7c
ENDCHAR
STARTCHAR oacute
ENCODING 243
SWIDTH 600 0
DWIDTH 9 0
BBX 7 10 1 0
BITMAP
18
30
00
7c
c6
c6
c6
c6
c6
7c
ENDCHAR
STARTCHAR ocircumflex
ENCODING 244
SWIDTH 600 0
DWIDTH 9 0
BBX 7 10 1 0
BITMAP
38
6c
00
7c
c6
c6
c6
c6
c6
7c
ENDCHAR
STARTCHAR otilde
ENCODING 245
SWIDTH 600 0
DWIDTH 9 0
BBX 7 10 1 0
BITMAP
74
5c
00
7c
c6
c6
c6
c6
c6
7c
ENDCHAR
STARTCHAR odieresis
ENCODING 246
SWIDTH 600 0
DWIDTH 9 0
BBX 7 10 1 0
BITMAP
6c
6c
00
7c
c6
c6
c6
c6
c6
7c
ENDCHAR
STARTCHAR divide
ENCODING 247
SWIDTH 600 0
DWIDTH 9 0
BBX 8 8 0 0
BITMAP
18
18
00
ff
ff
00
18
18
ENDCHAR
STARTCHAR oslash
ENCODING 248
SWIDTH 600 0
DWIDTH 9 0
BBX 9 7 0 0
BITMAP
3e80
6300
6700
6b00
7300
6300
be00
ENDCHAR
STARTCHAR ugrave
ENCODING 249
SWIDTH 600 0
DWIDTH 9 0
BBX 7 10 1 0
BITMAP
30
18
00
c6
c6
c6
c6
c6
ce
76
ENDCHAR
STARTCHAR uacute
ENCODING 250
SWIDTH 600 0
DWIDTH 9 0
BBX 7 10 1 0
BITMAP
18
30
00
c6
c6
c6
c6
c6
ce
76
ENDCHAR
STARTCHAR ucircumflex
ENCODING 251
SWIDTH 600 0
DWIDTH 9 0
BBX 7 10 1 0
BITMAP
38
6c
00
c6
c6
c6
c6
c6
ce
76
ENDCHAR
STARTCHAR udieresis
ENCODING 252
SWIDTH 600 0
DWIDTH 9 0
BBX 7 10 1 0
BITMAP
6c
6c
00
c6
c6
c6
c6
c6
ce
76
ENDCHAR
STARTCHAR yacute
ENCODING 253
SWIDTH 600 0
DWIDTH 9 0
BBX 7 13 1 -3
BITMAP
18
30
00
c6
c6
c6
c6
c6
ce
76
06
c6
7c
ENDCHAR
STARTCHAR thorn
ENCODING 254
SWIDTH 600 0
DWIDTH 9 0
BBX 8 12 0 -2
BITMAP
e0
60
7c
66
63
63
63
66
7c
60
60
f0
ENDCHAR
STARTCHAR ydieresis
ENCODING 255
SWIDTH 600 0
DWIDTH 9 0
BBX 7 13 1 -3
BITMAP
6c
6c
00
c6
c6
c6
c6
c6
ce
76
06
c6
7c
ENDCHAR
ENDFONT
